<?xml version="1.0" encoding="utf-8"?>
<!-- Generator: Adobe Illustrator 14.0.0, SVG Export Plug-In . SVG Version: 6.00 Build 43363)  -->
<!DOCTYPE svg PUBLIC "-//W3C//DTD SVG 1.1//EN" "http://www.w3.org/Graphics/SVG/1.1/DTD/svg11.dtd">
<svg version="1.1" id="Layer_1" xmlns="http://www.w3.org/2000/svg" xmlns:xlink="http://www.w3.org/1999/xlink" x="0px" y="0px"
	 width="11px" height="11px" viewBox="0 0 11 11" enable-background="new 0 0 11 11" xml:space="preserve">
<g>
	<g>
		<path fill="#CDCDCD" d="M5.499,5.858c1.622,0,2.208-1.626,2.359-2.963C8.047,1.25,7.27,0.011,5.499,0.011S2.95,1.25,3.139,2.896
			C3.292,4.232,3.876,5.858,5.499,5.858z M9.721,8.183C9.611,7.565,9.472,6.659,8.932,6.255c-0.312-0.233-0.715-0.31-1.072-0.45
			c-0.174-0.068-0.33-0.137-0.477-0.213C6.891,6.134,6.248,6.416,5.499,6.416c-0.75,0-1.392-0.282-1.885-0.825
			C3.468,5.668,3.313,5.736,3.138,5.805c-0.357,0.141-0.761,0.217-1.073,0.45c-0.54,0.404-0.678,1.311-0.789,1.928
			c-0.09,0.51-0.15,1.031-0.168,1.551c-0.014,0.402,0.184,0.457,0.52,0.578c0.42,0.152,0.854,0.264,1.292,0.356
			c0.844,0.179,1.713,0.315,2.579,0.321c0.866-0.006,1.736-0.143,2.579-0.321c0.437-0.093,0.871-0.204,1.291-0.356
			c0.336-0.121,0.535-0.176,0.521-0.578C9.872,9.214,9.812,8.692,9.721,8.183z"/>
	</g>
</g>
</svg>
