<?xml version="1.0" encoding="utf-8"?>
<!-- Generator: Adobe Illustrator 14.0.0, SVG Export Plug-In . SVG Version: 6.00 Build 43363)  -->
<!DOCTYPE svg PUBLIC "-//W3C//DTD SVG 1.1//EN" "http://www.w3.org/Graphics/SVG/1.1/DTD/svg11.dtd">
<svg version="1.1" id="Layer_1" xmlns="http://www.w3.org/2000/svg" xmlns:xlink="http://www.w3.org/1999/xlink" x="0px" y="0px"
	 width="200px" height="31px" viewBox="0 0 200 31" enable-background="new 0 0 200 31" xml:space="preserve">
<path fill="#0078BF" d="M7.701,29.765h6.57V7.276h7.551V1.195H0.231v6.082h7.47V29.765z M29.577,8.99
	c-0.041-1.551,1.551-2.081,3.266-2.081c2.612,0,6.734,1.592,8.162,2.162l2.409-5.55c-5.102-2.532-9.102-2.776-10.98-2.776
	c-5.469,0-9.429,3.183-9.429,8.531c0,5.876,5.185,7.468,9.307,8.816c2.693,0.857,4.897,1.634,4.897,3.428
	c0,1.428-1.795,2.449-3.918,2.449c-2.571,0-5.347-1.102-8.164-2.449l-2.897,5.47c3.715,1.999,7.103,3.103,11.307,3.103
	c6.245,0,10.57-3.879,10.57-8.857c0-5.226-4.367-7.185-8.327-8.572C32.598,11.52,29.741,10.745,29.577,8.99 M53.29,8.99
	c-0.04-1.551,1.551-2.081,3.266-2.081c2.612,0,6.734,1.592,8.162,2.162l2.408-5.55c-5.101-2.532-9.102-2.776-10.979-2.776
	c-5.469,0-9.429,3.183-9.429,8.531c0,5.876,5.184,7.468,9.306,8.816c2.695,0.857,4.898,1.634,4.898,3.428
	c0,1.428-1.796,2.449-3.919,2.449c-2.571,0-5.348-1.102-8.162-2.449l-2.898,5.47c3.715,1.999,7.104,3.103,11.306,3.103
	c6.245,0,10.57-3.879,10.57-8.857c0-5.226-4.366-7.185-8.325-8.572C56.312,11.52,53.454,10.745,53.29,8.99 M87.041,18.785h7.794
	v7.266c-2.082,1.347-4.653,2.367-7.715,2.367c-10.612,0-12.162-9.509-12.162-12.856c0-3.308,1.55-12.735,12.162-12.898
	c3.428-0.041,6.45,1.347,8.61,3.184l1.104-1.225c-2.57-2.246-5.428-3.592-9.714-3.592c-10.899,0-14.082,8.693-14.082,14.531
	c0,6.123,3.183,14.571,14.082,14.571c4.082,0,7.226-1.43,9.633-3.348v-9.551h-9.712V18.785z M102.181,18.419h8.407l5.511,11.346
	h1.959l-5.549-11.429c3.918-0.446,7.835-3.589,7.835-8.57c0-3.429-2.245-8.571-9.632-8.571h-10.408v28.57h1.877V18.419z
	 M102.181,16.868V2.746h8.98c5.55,0,7.387,4.407,7.387,7.02c0,2.816-1.837,6.979-7.591,7.103H102.181z M136.18,30.052
	c10.939,0,14.122-8.572,14.122-14.572c0-6.082-3.183-14.611-14.122-14.611c-10.898,0-14.08,8.53-14.08,14.611
	C122.1,21.479,125.281,30.052,136.18,30.052 M136.18,2.46c10.611,0,12.245,9.225,12.245,13.02s-1.634,12.938-12.245,12.938
	c-11.021,0-12.204-9.713-12.204-13.021C123.976,11.725,125.527,2.46,136.18,2.46 M164.138,28.379c-7.142,0-8.939-6.653-8.939-9.184
	v-18h-1.836v18c0,4.693,2.816,10.856,10.775,10.856c8.041,0,10.897-6.163,10.897-10.856v-18h-2.002v18
	C173.033,21.767,171.32,28.379,164.138,28.379 M181.606,18.419h9.142c4.368,0,9.022-3.104,9.022-8.653
	c0-3.429-2.247-8.571-9.634-8.571h-10.407v28.57h1.877V18.419z M181.606,16.868V2.746h8.979c5.551,0,7.348,4.285,7.348,7.02
	c0,2.53-1.633,6.979-7.348,7.103H181.606z"/>
</svg>
