<?xml version="1.0" encoding="utf-8"?>
<!-- Generator: Adobe Illustrator 14.0.0, SVG Export Plug-In . SVG Version: 6.00 Build 43363)  -->
<!DOCTYPE svg PUBLIC "-//W3C//DTD SVG 1.1//EN" "http://www.w3.org/Graphics/SVG/1.1/DTD/svg11.dtd">
<svg version="1.1" id="Layer_1" xmlns="http://www.w3.org/2000/svg" xmlns:xlink="http://www.w3.org/1999/xlink" x="0px" y="0px"
	 width="11px" height="11px" viewBox="0 0 11 11" enable-background="new 0 0 11 11" xml:space="preserve">
<g>
	<g>
		<path fill="#CDCDCD" d="M8.519,4.875h0.378V3.496c0-1.866-1.519-3.384-3.386-3.384c-1.867,0-3.385,1.518-3.385,3.384v1.379H2.48
			C1.863,4.88,1.362,5.382,1.362,6v3.76c0,0.623,0.506,1.129,1.128,1.129h6.019c0.623,0,1.129-0.506,1.129-1.129V6
			C9.638,5.382,9.137,4.88,8.519,4.875z M5.511,1.992c0.83,0,1.505,0.675,1.505,1.504v1.377H4.006V3.496
			C4.006,2.667,4.681,1.992,5.511,1.992z M5.876,7.775v1.232c0,0.209-0.168,0.377-0.376,0.377S5.124,9.217,5.124,9.008V7.775
			C4.9,7.646,4.748,7.406,4.748,7.129c0-0.414,0.337-0.752,0.752-0.752s0.753,0.338,0.753,0.752
			C6.253,7.406,6.101,7.646,5.876,7.775z"/>
	</g>
</g>
</svg>
